solid solid
 facet normal 0 0 1
  outer loop
   vertex 0.03 0 0.01
   vertex 0 0.02 0.01
   vertex 0 0 0.01
  endloop
 endfacet
 facet normal 0 0 1
  outer loop
   vertex 0.04 0.02 0.01
   vertex 0.03 0 0.01
   vertex 0.04 0.005 0.01
  endloop
 endfacet
 facet normal 0 0 1
  outer loop
   vertex 0.04 0.02 0.01
   vertex 0 0.02 0.01
   vertex 0.03 0 0.01
  endloop
 endfacet
 facet normal 0 0 1
  outer loop
   vertex 0.0430015 0.0193442 0.01
   vertex 0.0420864 0.0197039 0.01
   vertex 0.0411081 0.0199227 0.01
  endloop
 endfacet
 facet normal 0 0 1
  outer loop
   vertex 0.0439027 0.0188277 0.01
   vertex 0.0411081 0.0199227 0.01
   vertex 0.04 0.02 0.01
  endloop
 endfacet
 facet normal 0 0 1
  outer loop
   vertex 0.0439027 0.0188277 0.01
   vertex 0.04 0.02 0.01
   vertex 0.04 0.005 0.01
  endloop
 endfacet
 facet normal 0 0 1
  outer loop
   vertex 0.0439027 0.0188277 0.01
   vertex 0.0430015 0.0193442 0.01
   vertex 0.0411081 0.0199227 0.01
  endloop
 endfacet
 facet normal 0 0 1
  outer loop
   vertex 0.0448814 0.0180979 0.01
   vertex 0.0439027 0.0188277 0.01
   vertex 0.04 0.005 0.01
  endloop
 endfacet
 facet normal 0 0 1
  outer loop
   vertex 0.0465026 0.0167746 0.01
   vertex 0.0448814 0.0180979 0.01
   vertex 0.04 0.005 0.01
  endloop
 endfacet
 facet normal 0 0 1
  outer loop
   vertex 0.0472976 0.0162862 0.01
   vertex 0.0465026 0.0167746 0.01
   vertex 0.04 0.005 0.01
  endloop
 endfacet
 facet normal 0 0 1
  outer loop
   vertex 0.0480569 0.0159829 0.01
   vertex 0.0472976 0.0162862 0.01
   vertex 0.04 0.005 0.01
  endloop
 endfacet
 facet normal 0 0 1
  outer loop
   vertex 0.0487799 0.0158425 0.01
   vertex 0.0480569 0.0159829 0.01
   vertex 0.04 0.005 0.01
  endloop
 endfacet
 facet normal 0 0 1
  outer loop
   vertex 0.0494407 0.0158499 0.01
   vertex 0.0487799 0.0158425 0.01
   vertex 0.04 0.005 0.01
  endloop
 endfacet
 facet normal 0 0 1
  outer loop
   vertex 0.0499249 0.0159692 0.01
   vertex 0.04 0.005 0.01
   vertex 0.04 0 0.01
  endloop
 endfacet
 facet normal 0 0 1
  outer loop
   vertex 0.0499249 0.0159692 0.01
   vertex 0.0494407 0.0158499 0.01
   vertex 0.04 0.005 0.01
  endloop
 endfacet
 facet normal 0 0 1
  outer loop
   vertex 0.050319 0.0161799 0.01
   vertex 0.0499249 0.0159692 0.01
   vertex 0.04 0 0.01
  endloop
 endfacet
 facet normal 0 0 1
  outer loop
   vertex 0.0533214 0.0189647 0.01
   vertex 0.0517636 0.0177589 0.01
   vertex 0.0506671 0.0164719 0.01
  endloop
 endfacet
 facet normal 0 0 1
  outer loop
   vertex 0.0533214 0.0189647 0.01
   vertex 0.0523043 0.0182606 0.01
   vertex 0.0517636 0.0177589 0.01
  endloop
 endfacet
 facet normal 0 0 1
  outer loop
   vertex 0.0547537 0.019982 0.01
   vertex 0.0545568 0.0199325 0.01
   vertex 0.0543588 0.0198328 0.01
  endloop
 endfacet
 facet normal 0 0 1
  outer loop
   vertex 0.055 0.02 0.01
   vertex 0.0539707 0.0194713 0.01
   vertex 0.0533214 0.0189647 0.01
  endloop
 endfacet
 facet normal 0 0 1
  outer loop
   vertex 0.055 0.02 0.01
   vertex 0.0543588 0.0198328 0.01
   vertex 0.0539707 0.0194713 0.01
  endloop
 endfacet
 facet normal 0 0 1
  outer loop
   vertex 0.055 0.02 0.01
   vertex 0.0533214 0.0189647 0.01
   vertex 0.0506671 0.0164719 0.01
  endloop
 endfacet
 facet normal 0 0 1
  outer loop
   vertex 0.055 0.02 0.01
   vertex 0.0547537 0.019982 0.01
   vertex 0.0543588 0.0198328 0.01
  endloop
 endfacet
 facet normal 0 0 1
  outer loop
   vertex 0.08 0 0.01
   vertex 0.0506671 0.0164719 0.01
   vertex 0.050319 0.0161799 0.01
  endloop
 endfacet
 facet normal 0 0 1
  outer loop
   vertex 0.08 0 0.01
   vertex 0.050319 0.0161799 0.01
   vertex 0.04 0 0.01
  endloop
 endfacet
 facet normal 0 0 1
  outer loop
   vertex 0.08 0 0.01
   vertex 0.055 0.02 0.01
   vertex 0.0506671 0.0164719 0.01
  endloop
 endfacet
 facet normal 0 0 1
  outer loop
   vertex 0.08 0.02 0.01
   vertex 0.055 0.02 0.01
   vertex 0.08 0 0.01
  endloop
 endfacet
endsolid solid
