solid solid
 facet normal -1 0 0
  outer loop
   vertex 0.04 0 0
   vertex 0.04 0.005 0.01
   vertex 0.04 0.005 0
  endloop
 endfacet
 facet normal -1 0 0
  outer loop
   vertex 0.04 0 0
   vertex 0.04 0 0.01
   vertex 0.04 0.005 0.01
  endloop
 endfacet
 facet normal 0 -1 0
  outer loop
   vertex 0.03 0 0
   vertex 0 0 0.01
   vertex 0 0 0
  endloop
 endfacet
 facet normal 0 -1 0
  outer loop
   vertex 0.03 0 0
   vertex 0.03 0 0.01
   vertex 0 0 0.01
  endloop
 endfacet
 facet normal 0 -1 0
  outer loop
   vertex 0.08 0 0
   vertex 0.04 0 0.01
   vertex 0.04 0 0
  endloop
 endfacet
 facet normal 0 -1 0
  outer loop
   vertex 0.08 0 0
   vertex 0.08 0 0.01
   vertex 0.04 0 0.01
  endloop
 endfacet
 facet normal 0.447214 -0.894427 0
  outer loop
   vertex 0.04 0.005 0
   vertex 0.03 0 0.01
   vertex 0.03 0 0
  endloop
 endfacet
 facet normal 0.447214 -0.894427 0
  outer loop
   vertex 0.04 0.005 0
   vertex 0.04 0.005 0.01
   vertex 0.03 0 0.01
  endloop
 endfacet
endsolid solid
